<?xml version="1.0" encoding="utf-8"?>
<!-- Svg Vector Icons : http://www.onlinewebfonts.com/icon -->
<!DOCTYPE svg PUBLIC "-//W3C//DTD SVG 1.1//EN" "http://www.w3.org/Graphics/SVG/1.1/DTD/svg11.dtd">
<svg version="1.1" xmlns="http://www.w3.org/2000/svg" xmlns:xlink="http://www.w3.org/1999/xlink" x="0px" y="0px" viewBox="0 0 1000 1000" enable-background="new 0 0 1000 1000" xml:space="preserve">
<metadata> Svg Vector Icons : http://www.onlinewebfonts.com/icon </metadata>
<g><g transform="translate(0.000000,511.000000) scale(0.100000,-0.100000)"><path d="M529.8,4611.7c-169.5-51.6-297.2-159.6-383.2-321.8c-44.2-83.5-46.7-208.8-46.7-3193v-3107l54-98.2c61.4-115.4,157.2-208.8,277.5-272.6c81-44.2,179.3-46.7,1672.6-54l1586.7-7.4l29.5-90.9c17.2-49.1,36.8-174.4,44.2-277.5c27-368.4-137.5-663.2-577.2-1031.6l-203.9-169.5h-380.7c-243.2,0-400.3-9.8-434.7-29.5c-154.7-81.1-154.7-253,0-334c73.7-41.8,5577.9-41.8,5663.8-2.5c100.7,46.7,144.9,189.1,83.5,270.2c-63.9,81.1-135.1,95.8-508.4,95.8h-373.3l-152.3,120.4c-503.5,400.3-668,722.1-604.2,1183.9c14.7,108,34.4,213.7,41.8,230.9c9.8,29.5,260.4,36.8,1586.7,41.8c1562.1,7.4,1576.9,7.4,1675.1,61.4c115.4,61.4,208.8,157.2,272.6,277.5c44.2,83.5,46.7,208.8,46.7,3193s-2.5,3109.5-46.7,3193c-63.8,120.4-157.2,216.1-272.6,277.5l-98.2,54l-4445.6,4.9C2593,4628.9,564.2,4621.5,529.8,4611.7z M9457.9,4179.4l61.4-58.9v-2299V-474.9H5000H480.7v2296.5v2299l61.4,58.9l58.9,61.4H5000h4398.9L9457.9,4179.4z M9519.3-1396c0-530.5,0-530.5-61.4-589.5l-59-61.4H5000H601l-58.9,61.4c-61.4,58.9-61.4,58.9-61.4,589.5v528.1H5000h4519.3V-1396z M5948.1-2493.9c-9.8-31.9-24.6-176.8-31.9-326.7c-24.6-481.4,68.8-734.4,380.7-1019.3l189.1-171.9H4987.7H3489.5l122.8,103.2c336.5,280,459.3,471.6,506,790.9c27,176.9,9.8,410.2-41.8,619l-14.7,58.9h950.5h950.5L5948.1-2493.9z"/><path d="M3135.8,3425.4c-44.2-12.3-110.5-39.3-142.5-61.4c-117.9-76.1-130.2-142.5-130.2-633.7v-456.8l-122.8-147.4c-100.7-120.4-122.8-164.6-122.8-243.2c0-78.6,19.6-115.4,122.8-228.4l122.8-135.1v-459.3c0-523.1,14.7-584.6,169.5-670.5c54-29.5,162.1-61.4,245.6-68.8l149.8-17.2v198.9v199l-90.9,7.4l-93.3,7.4l-12.3,496.1l-12.3,493.7l-78.6,98.2l-81,100.7l58.9,68.8c108.1,130.2,113,159.6,113,631.2v456.8h98.2h98.2v196.5v196.5l-103.2-2.4C3266,3452.4,3182.5,3440.1,3135.8,3425.4z"/><path d="M6596.5,3260.9v-199h86h86v-429.8c0-461.8,12.3-525.6,130.2-665.6l63.9-76.2l-63.9-58.9c-115.4-108.1-130.2-181.8-130.2-673V704h-86h-86V505.1V303.7l152.3,17.2c169.5,17.2,272.6,66.3,348.8,169.5c46.6,63.9,51.6,110.5,63.8,569.8l12.3,498.6l117.9,122.8c164.6,176.8,157.2,255.4-46.7,471.6l-81.1,86l-7.4,483.9c-7.4,442.1-12.3,488.8-58.9,552.6c-66.3,93.3-201.4,154.7-366,171.9l-135.1,14.7V3260.9z"/><path d="M4017.5,2472.4v-196.5H5000h982.5v196.5v196.5H5000h-982.5V2472.4z"/><path d="M4017.5,1293.5V1097H5000h982.5v196.5V1490H5000h-982.5V1293.5z"/><path d="M4889.5-1233.9c-86-39.3-162.1-142.5-176.8-240.7c-14.7-127.7,68.8-253,201.4-299.6c282.5-95.8,498.6,257.9,287.4,469.1C5125.3-1226.5,4977.9-1194.6,4889.5-1233.9z"/></g></g>
</svg>